# xmcd
# 
# Track frame offsets:
#     150
#     7809
#     14502
#     28239
#     39753
#     45347
#     58685
#     62213
#     70637
#     81228
#     92133
#     103861
#     110733
#     124320
#     129268
#     139633
#     149553
#     166363
#     169957
#     176803
#     184807
#     199389
#     212364
#     222888
#     231450
#     240841
#     262662
#     283994
#     289604
# 
# Disc length: 4015
# 
# Revision: 0
# Processed by: cddbd v1.5.2PL0 Copyright (c) Steve Scherf et al.
# Submitted via: fre:ac v1.0.31
# 
DISCID=ab0fad1d
DTITLE=Original Soundtrack - The Dark Tower
DYEAR=0
DGENRE=Soundtrack
TTITLE0=The Dark Tower
TTITLE1=The Face Of My Father
TTITLE2=I Kill With My heart
TTITLE3=Skin People
TTITLE4=Getting A Toothbrush
TTITLE5=Dutch Hill
TTITLE6=Guardian
TTITLE7=arrival In Mid - World
TTITLE8=His Shine Is Pure
TTITLE9=The Map
TTITLE10=Thinny
TTITLE11=Something Got Out
TTITLE12=We Don't Have Chicken
TTITLE13=Manny Village
TTITLE14=See Across Worlds
TTITLE15=There's Always Another Battle
TTITLE16=A Chicken, A Goat, And One Bullet
TTITLE17=Keystone earth
TTITLE18=Portal Activity
TTITLE19=Smiley Face
TTITLE20=The Creed
TTITLE21=Death Always Wins
TTITLE22=Dixie Pig
TTITLE23=Tall, Dark And Handsome
TTITLE24=Full Package As Advertised
TTITLE25=It Will Fall
TTITLE26=Collateral Damage
TTITLE27=Hot Dogs
TTITLE28=Roland Of Eld (Main Titles)
EXTD=
EXTT0=
EXTT1=
EXTT2=
EXTT3=
EXTT4=
EXTT5=
EXTT6=
EXTT7=
EXTT8=
EXTT9=
EXTT10=
EXTT11=
EXTT12=
EXTT13=
EXTT14=
EXTT15=
EXTT16=
EXTT17=
EXTT18=
EXTT19=
EXTT20=
EXTT21=
EXTT22=
EXTT23=
EXTT24=
EXTT25=
EXTT26=
EXTT27=
EXTT28=
PLAYORDER=
